<svg height="512" viewBox="0 0 96 96" width="512" xmlns="http://www.w3.org/2000/svg"><g id="_06-score" data-name="06-score"><g id="Glyph"><path d="m0 32v48a8.009 8.009 0 0 0 8 8h36v-64h-36a8.009 8.009 0 0 0 -8 8zm20 4a12.013 12.013 0 0 1 12 12v16a12 12 0 0 1 -24 0v-16a12.013 12.013 0 0 1 12-12z"/><path d="m20 68a4 4 0 0 0 4-4v-16a4 4 0 0 0 -8 0v16a4 4 0 0 0 4 4z"/><path d="m88 24h-36v64h36a8.009 8.009 0 0 0 8-8v-48a8.009 8.009 0 0 0 -8-8zm0 40a12 12 0 0 1 -24 0v-16a12 12 0 0 1 24 0z"/><path d="m76 44a4 4 0 0 0 -4 4v16a4 4 0 0 0 8 0v-16a4 4 0 0 0 -4-4z"/></g></g></svg>