<svg height="512" viewBox="0 0 96 96" width="512" xmlns="http://www.w3.org/2000/svg" xmlns:xlink="http://www.w3.org/1999/xlink"><linearGradient id="New_Gradient_Swatch_1" gradientUnits="userSpaceOnUse" x1="30" x2="66" y1="74" y2="38"><stop offset="0" stop-color="#34cdfa"/><stop offset="1" stop-color="#e8d9f1"/></linearGradient><g id="_06-score" data-name="06-score"><g id="Flat"><rect fill="#e6f9fe" height="64" rx="8" width="96" y="24"/><path d="m8 72v-48a8.009 8.009 0 0 0 -8 8v48a8.009 8.009 0 0 0 8 8h80a8.009 8.009 0 0 0 8-8h-80a8.009 8.009 0 0 1 -8-8z" fill="#ccf2fe"/><path d="m24 76a12.013 12.013 0 0 1 -12-12v-16a12 12 0 0 1 24 0v16a12.013 12.013 0 0 1 -12 12zm0-32a4 4 0 0 0 -4 4v16a4 4 0 0 0 8 0v-16a4 4 0 0 0 -4-4z" fill="#67d9fb"/><path d="m72 76a12.013 12.013 0 0 1 -12-12v-16a12 12 0 0 1 24 0v16a12.013 12.013 0 0 1 -12 12zm0-32a4 4 0 0 0 -4 4v16a4 4 0 0 0 8 0v-16a4 4 0 0 0 -4-4z" fill="#67d9fb"/><path d="m44 24h8v64h-8z" fill="url(#New_Gradient_Swatch_1)"/></g></g></svg>